<svg width="79" height="80" viewBox="0 0 79 80" fill="none" xmlns="http://www.w3.org/2000/svg">
<path d="M39.5 3.66003C19.4487 3.66003 3.16 19.9487 3.16 40C3.16 60.0513 19.4487 76.34 39.5 76.34C59.5513 76.34 75.84 60.0513 75.84 40C75.84 19.9487 59.5513 3.66003 39.5 3.66003ZM39.5 6.82003C57.8435 6.82003 72.68 21.6565 72.68 40C72.68 58.3436 57.8435 73.18 39.5 73.18C21.1565 73.18 6.32 58.3436 6.32 40C6.32 21.6565 21.1565 6.82003 39.5 6.82003ZM37.6052 23.0953C37.1312 23.0953 36.9726 23.4088 36.9726 23.7248V45.0548C36.9726 45.5288 37.2892 45.6874 37.6052 45.6874H41.2374C41.7114 45.6874 41.87 45.3708 41.87 45.0548V23.7248C41.87 23.2508 41.5534 23.0953 41.2374 23.0953H37.6052ZM37.6052 51.5353C37.1312 51.5353 36.9726 51.8488 36.9726 52.1648V56.2753C36.9726 56.7493 37.2892 56.9048 37.6052 56.9048H41.3948C41.8688 56.9048 42.0274 56.5913 42.0274 56.2753V52.1648C42.0274 51.6908 41.7108 51.5353 41.3948 51.5353H37.6052Z" fill="#333333" fill-opacity="0.2"/>
</svg>
