<svg width="55" height="55" viewBox="0 0 55 55" fill="none" xmlns="http://www.w3.org/2000/svg">
<g clip-path="url(#clip0_159_133)">
<path d="M13.475 6.6001C9.67771 6.6001 6.6 9.67781 6.6 13.4751V18.0584C6.6 19.3234 7.62667 20.3501 8.89167 20.3501H15.7667V22.6418C15.7667 23.9068 16.7933 24.9334 18.0583 24.9334C19.3233 24.9334 20.35 23.9068 20.35 22.6418V20.3501H29.5167L29.5211 43.2668H19.4324C21.3414 43.2668 23.0072 42.1507 23.6443 40.5006C24.0293 39.639 24.9333 37.6293 24.9333 34.1001C24.9333 32.8351 23.9067 31.8084 22.6417 31.8084H13.475C12.21 31.8084 11.1833 32.8351 11.1833 34.1001C11.1833 36.9784 11.8935 38.8962 12.4366 40.4156C13.108 42.1481 14.7753 43.2668 16.6842 43.2668H8.89167C7.62667 43.2668 6.6 44.2934 6.6 45.5584C6.6 46.8234 7.62667 47.8501 8.89167 47.8501H43.2667C45.799 47.8501 47.85 45.7991 47.85 43.2668V18.0584C47.85 11.7311 42.719 6.6001 36.3917 6.6001H13.475ZM38.6833 32.9543C40.5808 32.9543 42.1208 34.4943 42.1208 36.3918C42.1208 38.2893 40.5808 39.8293 38.6833 39.8293C36.7858 39.8293 35.2458 38.2893 35.2458 36.3918C35.2458 34.4943 36.7858 32.9543 38.6833 32.9543Z" fill="#333333"/>
<path d="M44.55 36.8501C44.55 40.1914 41.8413 42.9001 38.5 42.9001C35.1587 42.9001 32.45 40.1914 32.45 36.8501C32.45 33.5088 35.1587 30.8001 38.5 30.8001C41.8413 30.8001 44.55 33.5088 44.55 36.8501Z" fill="#333333"/>
<path d="M54.0194 42.2445C54.0194 46.2134 50.7265 49.4308 46.6645 49.4308C42.6025 49.4308 39.3097 46.2134 39.3097 42.2445C39.3097 38.2757 42.6025 35.0583 46.6645 35.0583C50.7265 35.0583 54.0194 38.2757 54.0194 42.2445Z" fill="white"/>
<path d="M46.6645 34.1001C51.2728 34.1001 55 37.7419 55 42.2445C55 46.7471 51.2728 50.3889 46.6645 50.3889C45.0193 50.3889 43.4966 49.9173 42.2056 49.1164L37.201 54.0063C36.6355 54.5588 35.7323 54.5588 35.1668 54.0063C34.5819 53.4348 34.5825 52.4938 35.1681 51.9231L40.0452 47.1701C38.9764 45.8002 38.329 44.1028 38.329 42.2445C38.329 37.7419 42.0562 34.1001 46.6645 34.1001ZM46.6645 36.0164C43.1346 36.0164 40.2903 38.7955 40.2903 42.2445C40.2903 45.6935 43.1346 48.4726 46.6645 48.4726C50.1945 48.4726 53.0387 45.6935 53.0387 42.2445C53.0387 38.7955 50.1945 36.0164 46.6645 36.0164Z" fill="#333333"/>
<path d="M36.829 42.2445C36.829 43.9722 37.2994 45.5791 38.1032 46.9681L34.1212 50.8488C32.932 52.0078 32.9308 53.9187 34.1185 55.0792C35.2668 56.2012 37.1009 56.2012 38.2493 55.0792L42.4656 50.9595C43.7368 51.5523 45.1576 51.8889 46.6645 51.8889C52.0682 51.8889 56.5 47.6082 56.5 42.2445C56.5 36.8808 52.0682 32.6001 46.6645 32.6001C41.2608 32.6001 36.829 36.8809 36.829 42.2445Z" stroke="white" stroke-width="3"/>
</g>
<defs>
<clipPath id="clip0_159_133">
<rect width="55" height="55" fill="white"/>
</clipPath>
</defs>
</svg>
