<svg width="55" height="55" viewBox="0 0 55 55" fill="none" xmlns="http://www.w3.org/2000/svg">
<path d="M19.8 2.19995C10.923 2.19995 7.7 8.21853 7.7 12.2632C7.7 18.6564 13.7874 22 19.8 22C25.6663 22 31.9 18.5162 31.9 12.057C31.9 6.34688 26.8114 2.19995 19.8 2.19995ZM33 5.49995C32.6645 5.49995 32.3352 5.51243 32.0096 5.53003C33.3395 7.37803 34.1 9.59518 34.1 12.057C34.1 17.7968 30.1938 21.6013 25.3967 23.2546C27.7925 24.7154 30.679 25.3 33 25.3C38.8663 25.3 45.1 21.8162 45.1 15.357C45.1 9.64688 40.0114 5.49995 33 5.49995ZM6.05 19.8C3.927 19.8 2.2 21.2806 2.2 23.1C2.2 24.9194 3.927 26.4 6.05 26.4C8.173 26.4 9.9 24.9194 9.9 23.1C9.9 21.2806 8.173 19.8 6.05 19.8ZM48.95 19.8C46.827 19.8 45.1 21.2806 45.1 23.1C45.1 24.9194 46.827 26.4 48.95 26.4C51.073 26.4 52.8 24.9194 52.8 23.1C52.8 21.2806 51.073 19.8 48.95 19.8ZM15.9844 26.4C10.282 26.4 8.8 29.6681 8.8 32.725C8.8 33.4686 9.04719 34.5259 9.22539 35.1914C8.99329 35.5566 8.8 36.091 8.8 36.85C8.8 38.3108 9.42643 39.0939 10.1986 39.4195C10.4637 40.3886 10.9913 41.3966 11.5479 42.0126V43.7593C11.1794 44.394 10.086 44.8586 8.9332 45.347C6.6595 46.3095 3.54855 47.6272 3.30215 51.6334C3.28345 51.9359 3.39073 52.233 3.59863 52.4541C3.80653 52.6741 4.0964 52.8 4.4 52.8H25.575H26.4H28.6H29.425H50.6C50.9036 52.8 51.1946 52.6752 51.4014 52.4541C51.6093 52.233 51.7166 51.9337 51.6979 51.6312C51.4504 47.6041 47.9169 46.2943 45.3363 45.3384C44.0592 44.8643 42.7405 44.3733 42.35 43.7507V42.0126C42.9066 41.3966 43.433 40.3897 43.6992 39.4195C44.4725 39.0961 45.1 38.3119 45.1 36.85C45.1 36.091 44.9067 35.5566 44.6746 35.1914C44.8528 34.5259 45.1 33.4686 45.1 32.725C45.1 30.3787 44.343 27.8665 41.4863 27.5365L41.1297 26.9371C40.9317 26.6038 40.5727 26.4 40.1844 26.4C34.482 26.4 33 29.6681 33 32.725C33 33.4686 33.2472 34.5259 33.4254 35.1914C33.1933 35.5566 33 36.091 33 36.85C33 38.3108 33.6264 39.0939 34.3986 39.4195C34.6637 40.3886 35.1913 41.3966 35.7479 42.0126V43.7593C35.3794 44.394 34.286 44.8586 33.1332 45.347C30.8595 46.3095 27.7486 47.6272 27.5021 51.6334C27.5007 51.6562 27.5107 51.6772 27.5107 51.7H27.4871C27.4872 51.6765 27.4993 51.6547 27.4979 51.6312C27.2504 47.6041 23.7169 46.2943 21.1363 45.3384C19.8592 44.8643 18.5405 44.3733 18.15 43.7507V42.0126C18.7066 41.3966 19.233 40.3897 19.4992 39.4195C20.2725 39.0961 20.9 38.3119 20.9 36.85C20.9 36.091 20.7067 35.5566 20.4746 35.1914C20.6528 34.5259 20.9 33.4686 20.9 32.725C20.9 30.3787 20.143 27.8665 17.2863 27.5365L16.9297 26.9371C16.7317 26.6038 16.3727 26.4 15.9844 26.4ZM3.85 28.6C3.41239 28.6 2.99271 28.7738 2.68327 29.0832C2.37384 29.3927 2.2 29.8123 2.2 30.25C2.2 30.6876 2.37384 31.1072 2.68327 31.4167C2.99271 31.7261 3.41239 31.9 3.85 31.9C4.28761 31.9 4.70729 31.7261 5.01673 31.4167C5.32616 31.1072 5.5 30.6876 5.5 30.25C5.5 29.8123 5.32616 29.3927 5.01673 29.0832C4.70729 28.7738 4.28761 28.6 3.85 28.6ZM51.15 28.6C50.7124 28.6 50.2927 28.7738 49.9833 29.0832C49.6738 29.3927 49.5 29.8123 49.5 30.25C49.5 30.6876 49.6738 31.1072 49.9833 31.4167C50.2927 31.7261 50.7124 31.9 51.15 31.9C51.5876 31.9 52.0073 31.7261 52.3167 31.4167C52.6262 31.1072 52.8 30.6876 52.8 30.25C52.8 29.8123 52.6262 29.3927 52.3167 29.0832C52.0073 28.7738 51.5876 28.6 51.15 28.6Z" fill="#333333"/>
</svg>
