<svg width="38" height="38" viewBox="0 0 38 38" fill="none" xmlns="http://www.w3.org/2000/svg">
<path d="M22.8141 0.611032C22.5949 0.627629 22.3781 0.685244 22.1734 0.787594L19 2.30166L15.7703 0.759469L15.725 0.745407C15 0.503736 14.0044 0.656023 13.475 1.45009L11.4047 4.23291L7.80781 4.30634L7.75312 4.31572C7.02526 4.43703 6.20895 4.98116 6.07344 5.92978L6.075 5.91259L5.49844 9.38134L2.24844 11.1532L2.19531 11.1954C1.56904 11.6964 1.17495 12.5328 1.46562 13.4048L1.46719 13.4095L2.625 16.7407L0.754686 19.6907C0.247346 20.4517 0.393352 21.4888 1.0125 22.1079L1.01562 22.1126L3.55781 24.5813L3.26719 28.1376L3.27344 28.0907C3.13354 29.07 3.79679 29.8683 4.59531 30.1345L4.61406 30.1407L8.03281 31.0876L9.41562 34.3642L9.42656 34.386C9.83596 35.2048 10.7039 35.5812 11.5281 35.4438L11.5422 35.4423L15.0359 34.7142L17.8187 36.9845L17.85 37.0048C18.1892 37.2309 18.5878 37.3751 19 37.3751C19.4122 37.3751 19.8449 37.2505 20.1875 36.9079L20.1297 36.961L22.8828 34.7142L26.3625 35.4392L26.3078 35.4251C27.2426 35.6922 28.1305 35.1124 28.4937 34.386L28.5047 34.3642L29.8875 31.0876L33.3062 30.1407L33.325 30.1345C34.1235 29.8683 34.7868 29.07 34.6469 28.0907L34.6516 28.1376L34.3625 24.5813L36.9 22.1157L36.8437 22.1657C37.5979 21.5624 37.7362 20.4797 37.125 19.7157L37.175 19.7845L35.2891 16.8126L36.3812 13.4673L36.3844 13.4532C36.6193 12.6308 36.3559 11.6124 35.5062 11.1876L32.5031 9.47041L31.925 5.99228L31.9266 6.01103C31.8027 5.14423 31.0493 4.38603 30.1203 4.38603H30.1516L26.6016 4.24072L24.525 1.45009C24.2713 1.06959 23.8876 0.801636 23.4656 0.679782C23.2546 0.618855 23.0332 0.594435 22.8141 0.611032ZM22.9656 2.13759C23.0581 2.11926 23.1364 2.16023 23.2359 2.30947L23.2469 2.32666L25.7984 5.75947L30.1047 5.93447H30.1203C30.3114 5.93447 30.3576 5.97659 30.3937 6.22978V6.23916L31.0969 10.4501L34.7937 12.5642L34.8141 12.5735C34.9241 12.6285 34.9791 12.7298 34.8953 13.0251V13.0267L33.5906 17.0267L35.8891 20.6517L35.9156 20.6845C35.9444 20.7205 35.9224 20.9181 35.8766 20.9548L35.8469 20.9782L35.8203 21.0048L32.7578 23.9782L33.1094 28.286L33.1125 28.3095C33.1325 28.4495 32.9964 28.6096 32.8359 28.6642L28.7516 29.7938L27.1047 33.6954C26.9889 33.9262 26.9171 33.9871 26.7328 33.9345L26.7062 33.9267L22.4766 33.047L19.1203 35.7845L19.0922 35.8126C19.1148 35.79 19.0678 35.8251 19 35.8251C18.9354 35.8251 18.8523 35.8029 18.7234 35.7204L15.4437 33.047L11.2719 33.9157C11.1371 33.9382 10.8882 33.8351 10.8156 33.6954L9.16719 29.7938L5.08281 28.6626C4.92293 28.6076 4.7863 28.4491 4.80625 28.3095L4.81094 28.286L5.1625 23.9782L2.10781 21.0126C1.92696 20.8317 1.91265 20.7491 2.04531 20.5501L2.05 20.5423L4.33437 16.9392L2.93437 12.9157V12.9142C2.90674 12.8287 2.9955 12.5667 3.15625 12.4235L6.90156 10.3798L7.60625 6.15791V6.15009C7.63003 5.9836 7.77627 5.89395 7.99687 5.85322L12.1953 5.76728L14.7531 2.32666L14.7641 2.30947C14.8725 2.14683 14.9989 2.14385 15.225 2.21728L19 4.01884L22.8594 2.17666L22.8672 2.17353C22.9025 2.15588 22.9348 2.14371 22.9656 2.13759ZM14.6 10.2001C13.32 10.2001 12.3594 10.9204 11.9594 12.1204C11.7994 12.6004 11.8 12.8401 11.8 14.6001C11.8 16.3601 11.8794 16.6798 11.9594 17.0798C12.3594 18.1998 13.32 19.0001 14.6 19.0001C15.88 19.0001 16.8406 18.2798 17.2406 17.0798C17.4006 16.5998 17.4 16.3601 17.4 14.6001C17.4 12.8401 17.3206 12.5204 17.2406 12.1204C16.8406 11.0004 15.88 10.2001 14.6 10.2001ZM23.3203 10.2001C23.0803 10.2001 23.0003 10.2807 22.9203 10.4407L13.4797 27.5595C13.3997 27.6395 13.4806 27.8001 13.6406 27.8001H14.7594C14.9194 27.8001 14.9997 27.7195 15.0797 27.5595L24.6 10.4407C24.6 10.3607 24.6006 10.2001 24.4406 10.2001H23.3203ZM14.6 11.8798C15.16 11.8798 15.5603 12.1998 15.7203 12.6798C15.8003 12.9198 15.8 13.1598 15.8 14.6798C15.8 16.1198 15.7203 16.3601 15.7203 16.6001C15.5603 17.1601 15.16 17.4001 14.6 17.4001C14.04 17.4001 13.6397 17.0801 13.4797 16.6001C13.3997 16.3601 13.4 16.1198 13.4 14.6798C13.4 13.1598 13.4797 12.9198 13.4797 12.6798C13.6397 12.1198 14.04 11.8798 14.6 11.8798ZM23.4 19.0001C22.12 19.0001 21.1594 19.7204 20.7594 20.9204C20.5994 21.4004 20.6 21.6401 20.6 23.4001C20.6 25.1601 20.6794 25.4798 20.7594 25.8798C21.1594 26.9998 22.12 27.8001 23.4 27.8001C24.68 27.8001 25.6406 27.0798 26.0406 25.8798C26.2006 25.3998 26.2 25.1601 26.2 23.4001C26.2 21.6401 26.1206 21.3204 26.0406 20.9204C25.6406 19.8004 24.68 19.0001 23.4 19.0001ZM23.4 20.6798C23.96 20.6798 24.3603 20.9998 24.5203 21.4798C24.6003 21.7198 24.6 21.9598 24.6 23.4798C24.6 24.9198 24.5203 25.1601 24.5203 25.4001C24.3603 25.9601 23.96 26.2001 23.4 26.2001C22.84 26.2001 22.4397 25.8801 22.2797 25.4001C22.1997 25.1601 22.2 24.9198 22.2 23.4798C22.2 21.9598 22.2797 21.7198 22.2797 21.4798C22.4397 20.9198 22.84 20.6798 23.4 20.6798Z" fill="#FF9900"/>
</svg>
