<svg width="40" height="40" viewBox="0 0 40 40" fill="none" xmlns="http://www.w3.org/2000/svg">
<path d="M20 1.6001C9.84763 1.6001 1.6 9.84772 1.6 20.0001C1.6 30.1525 9.84763 38.4001 20 38.4001C25.8302 38.4001 31.0281 35.6784 34.4 31.4407V37.6001C34.3985 37.7061 34.4181 37.8114 34.4576 37.9097C34.4971 38.0081 34.5558 38.0976 34.6303 38.1731C34.7047 38.2486 34.7934 38.3086 34.8912 38.3495C34.989 38.3904 35.094 38.4115 35.2 38.4115C35.306 38.4115 35.411 38.3904 35.5088 38.3495C35.6066 38.3086 35.6953 38.2486 35.7697 38.1731C35.8442 38.0976 35.9029 38.0081 35.9424 37.9097C35.9819 37.8114 36.0015 37.7061 36 37.6001V28.8001H34.7922H34.7125H27.2C27.094 28.7986 26.9887 28.8182 26.8904 28.8577C26.792 28.8972 26.7025 28.9559 26.627 29.0304C26.5515 29.1048 26.4915 29.1935 26.4506 29.2913C26.4097 29.3891 26.3886 29.4941 26.3886 29.6001C26.3886 29.7061 26.4097 29.8111 26.4506 29.9089C26.4915 30.0067 26.5515 30.0954 26.627 30.1698C26.7025 30.2443 26.792 30.3029 26.8904 30.3425C26.9887 30.382 27.094 30.4016 27.2 30.4001H33.1844C30.1082 34.2955 25.3541 36.8001 20 36.8001C10.7124 36.8001 3.2 29.2877 3.2 20.0001C3.2 10.7125 10.7124 3.2001 20 3.2001C29.2876 3.2001 36.8 10.7125 36.8 20.0001C36.7985 20.1061 36.8181 20.2114 36.8576 20.3097C36.8971 20.4081 36.9558 20.4976 37.0303 20.5731C37.1047 20.6486 37.1934 20.7086 37.2912 20.7495C37.389 20.7904 37.494 20.8115 37.6 20.8115C37.706 20.8115 37.811 20.7904 37.9088 20.7495C38.0066 20.7086 38.0953 20.6486 38.1697 20.5731C38.2442 20.4976 38.3029 20.4081 38.3424 20.3097C38.3819 20.2114 38.4015 20.1061 38.4 20.0001C38.4 9.84772 30.1524 1.6001 20 1.6001ZM19.9875 7.18916C19.7756 7.19247 19.5737 7.27972 19.426 7.43176C19.2784 7.58379 19.1971 7.78819 19.2 8.0001V17.7407C18.6686 17.9311 18.2213 18.3027 17.9367 18.7902C17.6521 19.2777 17.5485 19.8499 17.644 20.4062C17.7395 20.9626 18.0281 21.4675 18.459 21.8321C18.8899 22.1968 19.4355 22.3979 20 22.4001C20.496 22.3997 20.9797 22.2457 21.3846 21.9592C21.7894 21.6727 22.0956 21.2677 22.2609 20.8001H28.8C28.906 20.8016 29.0113 20.782 29.1096 20.7425C29.208 20.7029 29.2975 20.6443 29.373 20.5698C29.4485 20.4954 29.5085 20.4067 29.5494 20.3089C29.5903 20.2111 29.6114 20.1061 29.6114 20.0001C29.6114 19.8941 29.5903 19.7891 29.5494 19.6913C29.5085 19.5935 29.4485 19.5048 29.373 19.4304C29.2975 19.3559 29.208 19.2972 29.1096 19.2577C29.0113 19.2182 28.906 19.1986 28.8 19.2001H22.2625C22.1432 18.8627 21.9499 18.5563 21.6969 18.3032C21.4438 18.0502 21.1374 17.8569 20.8 17.7376V8.0001C20.8015 7.89307 20.7814 7.78683 20.7411 7.68768C20.7008 7.58852 20.641 7.49847 20.5652 7.42286C20.4894 7.34724 20.3993 7.28759 20.3 7.24745C20.2008 7.20731 20.0945 7.18749 19.9875 7.18916Z" fill="#FF9900"/>
</svg>
