<svg width="40" height="40" viewBox="0 0 40 40" fill="none" xmlns="http://www.w3.org/2000/svg">
<path d="M20.8 1.6001C10.6406 1.6001 6.71875 8.15947 6.4 14.4001V19.7501C5.84062 20.3907 5.6 21.2095 5.6 22.2501C5.6 24.0907 6.79062 25.6001 8.55 26.0001C10.6312 31.4407 14.0812 38.4001 20 38.4001C23.2 38.4001 25.6812 36.3188 27.6 33.6001H25.525C23.7656 35.7595 21.925 36.8001 19.925 36.8001C16.0844 36.8001 12.7906 32.9501 9.75 24.9501L9.6 24.4751L9.125 24.4001C8.08437 24.4001 7.2 23.4501 7.2 22.2501C7.2 21.7813 7.2875 21.3876 7.425 21.0751L10.05 22.3251C10.3 22.447 10.5937 22.4313 10.8281 22.2813C11.0594 22.1345 11.2031 21.8782 11.2 21.6001V15.8751C11.7531 15.8376 13.2094 15.7813 15.625 15.2001C18.1656 14.5907 21.0969 13.5001 23.125 11.5501C25.2719 14.3782 28.0469 15.4751 28.8 15.7251V21.6001C28.7969 21.8782 28.9406 22.1345 29.1719 22.2813C29.4062 22.4313 29.7 22.447 29.95 22.3251L31.2 21.7001V24.3501C31.0719 24.3782 30.9344 24.4001 30.8 24.4001L30.325 24.4751L30.15 24.9501C29.35 27.0313 28.55 28.8063 27.75 30.3251C28.7094 30.1657 29.6094 29.7688 30.25 29.0501C30.7312 28.0095 31.125 26.9595 31.525 26.0001C31.6844 25.9595 31.8406 25.8938 32 25.8251V26.4001C32 29.097 29.8969 31.2001 27.2 31.2001H23.85C23.5156 30.2751 22.6344 29.6001 21.6 29.6001H20C18.6844 29.6001 17.6 30.6845 17.6 32.0001C17.6 33.3157 18.6844 34.4001 20 34.4001H21.6C22.6344 34.4001 23.5156 33.7251 23.85 32.8001H27.2C30.7437 32.8001 33.6 29.9438 33.6 26.4001V25.6001C34.9156 25.6001 36 24.5157 36 23.2001V20.0001C36 18.6845 34.9156 17.6001 33.6 17.6001V14.4001C33.2812 7.35947 29.3656 3.35947 22.725 3.2001L21.125 1.6001H20.8ZM20.475 3.2001L22.075 4.8001H22.4C30.4 4.8001 31.8406 10.8001 32 14.4001V17.6001C31.975 17.6001 31.95 17.6001 31.925 17.6001C31.5125 17.6376 31.1969 17.9845 31.2 18.4001V19.9001L30.4 20.3001V15.2001C30.4031 14.8407 30.1687 14.5251 29.825 14.4251C29.825 14.4251 25.8375 13.172 23.875 9.9751C23.7156 9.71885 23.425 9.5751 23.125 9.6001C22.9094 9.62197 22.7094 9.72822 22.575 9.9001C20.9812 11.8126 17.9469 13.0095 15.275 13.6501C12.6031 14.2907 10.35 14.4001 10.35 14.4001C9.92812 14.4251 9.6 14.7782 9.6 15.2001V20.3251L7.925 19.5251V14.4001C8.40625 6.31885 14.6344 3.28135 20.475 3.2001ZM32.8 19.2001H33.6C34.0437 19.2001 34.4 19.5563 34.4 20.0001V23.2001C34.4 23.6438 34.0437 24.0001 33.6 24.0001H32.95C32.9 23.9876 32.85 23.9782 32.8 23.9751V20.5001C32.8125 20.4157 32.8125 20.3345 32.8 20.2501V19.2001ZM20 31.2001H21.6C22.0437 31.2001 22.4 31.5563 22.4 32.0001C22.4 32.4438 22.0437 32.8001 21.6 32.8001H20C19.5562 32.8001 19.2 32.4438 19.2 32.0001C19.2 31.5563 19.5562 31.2001 20 31.2001Z" fill="#FF9900"/>
</svg>
