<svg width="40" height="40" viewBox="0 0 40 40" fill="none" xmlns="http://www.w3.org/2000/svg">
<path d="M17.15 0.804798C16.0654 0.837191 15.0174 1.40209 14.4203 2.38917L14.2094 2.73917C13.9081 3.23651 13.3773 3.54283 12.7969 3.5548H12.7953L12.3859 3.56417C10.6293 3.60076 9.19825 5.03074 9.1625 6.78761L9.15312 7.19699C9.14116 7.77747 8.83391 8.30936 8.3375 8.60949L7.9875 8.82199C6.48436 9.73189 5.95951 11.6868 6.80625 13.2267H6.80781L7.00469 13.586C7.2848 14.0946 7.2848 14.7087 7.00469 15.2173L6.80781 15.5751C5.96121 17.1148 6.48494 19.07 7.98906 19.9798L8.33906 20.1907C8.8364 20.492 9.14272 21.0228 9.15469 21.6032V21.6048L9.16406 22.0142C9.19365 23.4352 10.1411 24.6293 11.4297 25.0579L7.27344 34.0642C7.21704 34.1861 7.19226 34.3203 7.20137 34.4543C7.21049 34.5884 7.25322 34.718 7.32561 34.8311C7.398 34.9443 7.49772 35.0374 7.61558 35.1019C7.73345 35.1664 7.86565 35.2002 8 35.2001H13.2156L16.175 38.9001C16.2611 39.0077 16.3735 39.0912 16.5013 39.1425C16.6291 39.1939 16.768 39.2114 16.9046 39.1933C17.0412 39.1752 17.1707 39.1222 17.2808 39.0394C17.3909 38.9565 17.4777 38.8467 17.5328 38.7204L20.025 33.0251L22.5172 38.7204C22.5723 38.8467 22.6591 38.9565 22.7692 39.0394C22.8793 39.1222 23.0088 39.1752 23.1454 39.1933C23.282 39.2114 23.4209 39.1939 23.5487 39.1425C23.6765 39.0912 23.7889 39.0077 23.875 38.9001L26.8344 35.2001H32.05C32.1843 35.2002 32.3166 35.1664 32.4344 35.1019C32.5523 35.0374 32.652 34.9443 32.7244 34.8311C32.7968 34.718 32.8395 34.5884 32.8486 34.4543C32.8577 34.3203 32.833 34.1861 32.7766 34.0642L28.6141 25.0439C29.881 24.6031 30.8082 23.4196 30.8375 22.0142V22.0126L30.8469 21.6048V21.6032C30.8588 21.0228 31.1661 20.4909 31.6625 20.1907L32.0141 19.9782C33.5172 19.0683 34.0405 17.115 33.1938 15.5751L33.1922 15.5735L32.9922 15.2126C32.7138 14.7046 32.7142 14.092 32.9937 13.5845L33.1922 13.2267V13.2251C34.0384 11.6861 33.5151 9.73233 32.0125 8.82199L32.0109 8.82042L31.6609 8.60949C31.1636 8.3084 30.8573 7.77746 30.8453 7.19699V7.19542L30.8359 6.78761V6.78605C30.7994 5.02937 29.3694 3.59836 27.6125 3.56261L27.2031 3.55324C26.6226 3.54127 26.0908 3.23402 25.7906 2.73761L25.5781 2.38761C24.6683 0.88349 22.7131 0.359761 21.1734 1.20636V1.20792L20.8141 1.4048C20.3055 1.68492 19.6914 1.68492 19.1828 1.4048L18.825 1.20792C18.4401 0.996273 18.0296 0.870064 17.6156 0.823548C17.4604 0.806104 17.3049 0.80017 17.15 0.804798ZM17.1094 2.40011C17.4258 2.37702 17.7537 2.44396 18.0547 2.60949L18.4109 2.80636C19.3984 3.35024 20.6001 3.35024 21.5875 2.80636L21.9453 2.60792V2.60949C22.7481 2.16808 23.7352 2.43186 24.2094 3.21574L24.4219 3.56574C25.0048 4.52911 26.043 5.12949 27.1687 5.15324L27.5797 5.16261C28.4959 5.18125 29.2189 5.90266 29.2375 6.81886V6.82042L29.2453 7.2298C29.2685 8.35652 29.8694 9.39467 30.8328 9.97824L31.1828 10.1907C31.9662 10.6646 32.2309 11.6508 31.7906 12.4532L31.5922 12.8126C31.0483 13.8 31.0483 15.0002 31.5922 15.9876L31.5937 15.9892V15.9907L31.7922 16.3454C32.2335 17.1479 31.9676 18.1354 31.1844 18.6095L30.8344 18.822C29.87 19.4051 29.2701 20.4437 29.2469 21.5704L29.2391 21.9798V21.9814C29.2204 22.8976 28.4974 23.619 27.5812 23.6376L27.1703 23.647C26.0442 23.6707 25.0067 24.2699 24.4234 25.2329V25.2345L24.2109 25.5845C23.7368 26.3684 22.7496 26.6321 21.9469 26.1907V26.1923L21.5891 25.9939C20.6016 25.45 19.3999 25.45 18.4125 25.9939L18.0547 26.1923V26.1907C17.2522 26.632 16.2647 26.3677 15.7906 25.5845L15.5781 25.2345C14.9952 24.2711 13.957 23.6707 12.8312 23.647H12.8297L12.4203 23.6376C11.5041 23.619 10.7811 22.8976 10.7625 21.9814V21.9798L10.7547 21.5704C10.7315 20.4437 10.1306 19.4055 9.16719 18.822L8.81719 18.6095C8.03333 18.1352 7.76797 17.1482 8.20937 16.3454L8.40625 15.9892V15.9876C8.94938 15.0004 8.94988 13.7996 8.40625 12.8126L8.20781 12.4548H8.20937C7.76811 11.6523 8.0324 10.6648 8.81562 10.1907L9.16562 9.97824C10.129 9.39532 10.7294 8.3571 10.7531 7.23136V7.2298L10.7625 6.82042C10.7811 5.90422 11.5025 5.18125 12.4187 5.16261H12.4203L12.8297 5.1548C13.9564 5.13157 14.9946 4.53076 15.5781 3.5673L15.7906 3.2173C16.0277 2.82536 16.3919 2.56209 16.7984 2.45324C16.9001 2.42602 17.0039 2.40781 17.1094 2.40011ZM26.9609 25.2829L30.7984 33.6001H26.45C26.33 33.6 26.2115 33.627 26.1033 33.6789C25.9951 33.7308 25.9 33.8064 25.825 33.9001L23.4516 36.8657L20.8984 31.0267L22.2453 27.9485C23.5311 28.1494 24.8716 27.5832 25.5797 26.4126L25.7922 26.0626C26.0501 25.6368 26.4794 25.3639 26.9609 25.2829ZM13.0859 25.2892C13.5492 25.3801 13.9605 25.6509 14.2094 26.0626L14.4219 26.4126C15.3318 27.9158 17.2867 28.4406 18.8266 27.5939V27.5923L19.1859 27.3954C19.6741 27.1265 20.2572 27.1231 20.7531 27.3704L16.5984 36.8657L14.225 33.9001C14.15 33.8064 14.0549 33.7308 13.9467 33.6789C13.8385 33.627 13.72 33.6 13.6 33.6001H9.25156L13.0859 25.2892Z" fill="#FF9900"/>
</svg>
