<svg width="40" height="40" viewBox="0 0 40 40" fill="none" xmlns="http://www.w3.org/2000/svg">
<g clip-path="url(#clip0_12_824)">
<path d="M17.5016 3.2002C14.5544 3.2666 12.3992 4.16868 11.0984 5.87988C9.55764 7.90628 9.2695 11.0126 10.2375 15.1174C9.9071 15.5422 9.6099 16.2206 9.6875 17.1486C9.9235 18.8798 10.5812 19.5902 11.1172 19.8814C11.3716 21.2566 12.0928 22.8203 12.8 23.5643V26.408C12.2832 27.5744 10.534 28.294 8.68437 29.0564C5.52837 30.3548 1.6 31.973 1.6 36.8002V37.6002H24.1734L24.5922 36.0002H3.25C3.6612 32.8538 6.52095 31.6762 9.29375 30.5346C10.9685 29.845 12.5715 29.182 13.5656 28.1033C13.8095 28.3197 14.092 28.5061 14.3937 28.6611C15.2565 29.1045 16.3657 29.3596 17.6 29.3596C18.8438 29.3596 19.9569 29.0807 20.8141 28.6283C21.3267 28.3578 21.7905 28.0154 22.0828 27.5783C22.3954 27.4083 22.741 27.2991 23.1078 27.2893L23.1609 27.2861C22.8249 27.0165 22.5568 26.7251 22.4016 26.3971V23.5564C23.0776 22.8236 23.7528 21.2954 24.0016 19.9018C24.5712 19.6218 25.2743 18.9096 25.4375 17.1064C25.5127 16.2056 25.2658 15.543 24.925 15.1158C25.6042 12.9334 26.2001 9.19418 24.7625 6.81738C24.0801 5.69018 23.04 4.98165 21.6672 4.70645C20.8936 3.73285 19.4407 3.2002 17.5031 3.2002H17.5016ZM17.5203 4.8002C19.0331 4.8002 20.123 5.18075 20.5094 5.84395L20.7047 6.17832L21.0891 6.23145C22.1547 6.38185 22.9066 6.84467 23.3922 7.64707C24.5514 9.56307 23.9413 13.1484 23.2469 15.0908L22.9937 15.7518L23.6281 16.0689C23.6993 16.1193 23.8917 16.3961 23.8437 16.9689C23.7365 18.1513 23.3605 18.467 23.2797 18.4814H22.5531L22.4844 19.2049C22.3396 20.7217 21.4919 22.2888 21.2031 22.5064L20.8 22.7361V26.5596C20.8 26.5507 20.65 26.9051 20.0672 27.2127C19.4844 27.5203 18.5962 27.7596 17.6 27.7596C16.5943 27.7596 15.7022 27.5359 15.125 27.2393C14.5477 26.9426 14.4 26.6283 14.4 26.5596V23.2002L14.4125 22.7439L14.0094 22.5127C13.7174 22.3023 12.7815 20.7169 12.6375 19.2049L12.6266 18.4877H11.8984C11.7848 18.4437 11.4277 18.064 11.2781 16.9736C11.2221 16.3032 11.5625 16.0252 11.5625 16.0252L12.0344 15.7111L11.8953 15.1627C10.9265 11.3355 11.0863 8.53827 12.3719 6.84707C13.3639 5.54467 15.1019 4.8546 17.5203 4.8002ZM31.25 23.1283C30.93 23.1283 30.61 23.3683 30.45 23.5283L28.5297 28.5689L23.1703 28.8893C22.8503 28.8893 22.53 29.1286 22.45 29.4486C22.37 29.7686 22.4503 30.1683 22.7703 30.3283L26.85 33.6893L25.4891 38.8893C25.4091 39.2093 25.5694 39.6089 25.8094 39.7689C25.9694 39.8489 26.1291 39.9283 26.2891 39.9283C26.4499 39.9283 26.6111 39.8489 26.7703 39.7689L31.25 36.8893L35.7297 39.8486C35.9697 40.0886 36.3694 40.0086 36.6094 39.8486C36.9294 39.6086 37.0097 39.2889 36.9297 38.9689L35.5703 33.7689L39.7297 30.4096C39.9697 30.1696 40.0503 29.8483 39.9703 29.5283C39.8903 29.2083 39.57 28.9689 39.25 28.9689L33.8891 28.6486L31.9703 23.6096C31.8903 23.3696 31.57 23.1283 31.25 23.1283ZM31.25 26.1689L32.5297 29.7689C32.6897 30.0089 32.93 30.2486 33.25 30.2486L37.0906 30.4893L34.1297 32.8893C33.8897 33.0493 33.8106 33.3693 33.8906 33.6893L34.85 37.3689L31.65 35.2893C31.57 35.2093 31.41 35.1283 31.25 35.1283C31.0892 35.1283 30.9303 35.2096 30.7703 35.2096L27.5703 37.2893L28.5297 33.6096C28.6097 33.3696 28.5306 32.9696 28.2906 32.8096L25.3297 30.4096L29.1703 30.2486C29.4903 30.1686 29.7306 30.0093 29.8906 29.6893L31.25 26.1689Z" fill="#FF9900"/>
</g>
<defs>
<clipPath id="clip0_12_824">
<rect width="40" height="40" fill="white"/>
</clipPath>
</defs>
</svg>
