<svg width="40" height="40" viewBox="0 0 40 40" fill="none" xmlns="http://www.w3.org/2000/svg">
<path d="M9.6 2.3999C9.59517 2.3999 9.59076 2.40143 9.58594 2.40146H3.20156V9.57021C3.20152 9.57727 3.2 9.58345 3.2 9.59053H3.20156V30.4093H3.2C3.2 30.4164 3.20152 30.4225 3.20156 30.4296V37.5983H9.58594C9.59076 37.5984 9.59517 37.5999 9.6 37.5999V37.5983H17.6V37.5999C17.6048 37.5999 17.6092 37.5984 17.6141 37.5983H23.2V37.5999H34.0281C35.5492 37.5999 36.8 36.3495 36.8 34.828V20.3718C36.8 18.8507 35.5492 17.5999 34.0281 17.5999H23.9984V9.59053H24C24 9.58345 23.9985 9.57727 23.9984 9.57021V2.40146H17.6141C17.6092 2.40143 17.6048 2.3999 17.6 2.3999V2.40146H9.6V2.3999ZM4.79844 3.99834H7.42969C7.39256 4.07355 7.34605 4.149 7.3125 4.22334C7.13118 4.62513 6.99505 5.01698 6.87188 5.32178C6.7487 5.62658 6.61068 5.83766 6.61406 5.83428C6.61846 5.82988 6.40231 5.96939 6.08594 6.10615C5.76957 6.24291 5.35944 6.40545 4.93906 6.6499C4.89219 6.67716 4.8455 6.71184 4.79844 6.74209V3.99834ZM9.6 3.99834H17.6V3.9999C17.7842 3.9999 17.8538 4.03725 17.9906 4.17334C18.1275 4.30943 18.2857 4.56568 18.4281 4.88115C18.5705 5.19663 18.6994 5.56307 18.8438 5.92021C18.9881 6.27736 19.1202 6.63143 19.4547 6.96553C19.7906 7.30147 20.1377 7.42541 20.4797 7.57334C20.8217 7.72127 21.1645 7.86298 21.4562 8.03271C22.0397 8.37218 22.4 8.66721 22.4 9.59053H22.4016V30.4093H22.4C22.4 31.3326 22.0396 31.6279 21.4562 31.9671C21.1646 32.1367 20.8216 32.2773 20.4797 32.4249C20.1378 32.5725 19.7908 32.6974 19.4547 33.0327V33.0343C19.2878 33.2014 19.1711 33.3735 19.0781 33.5483C18.9852 33.7232 18.9159 33.9009 18.8438 34.0796C18.6994 34.4369 18.5705 34.8031 18.4281 35.1187C18.2857 35.4342 18.1275 35.6904 17.9906 35.8265C17.8538 35.9625 17.7842 35.9999 17.6 35.9999V36.0015H9.6V35.9999C9.41583 35.9999 9.34621 35.9626 9.20938 35.8265C9.07254 35.6904 8.91426 35.4342 8.77188 35.1187C8.62949 34.8031 8.50059 34.4369 8.35625 34.0796C8.21191 33.7223 8.07917 33.3685 7.74531 33.0343V33.0327C7.40923 32.6971 7.0623 32.5726 6.72031 32.4249C6.37832 32.2772 6.03544 32.1351 5.74375 31.9655C5.16037 31.6264 4.8 31.3326 4.8 30.4093H4.79844V9.59053H4.8C4.8 8.66721 5.16031 8.37356 5.74375 8.03428C6.03547 7.86463 6.37826 7.72277 6.72031 7.5749C7.06237 7.42704 7.40932 7.30152 7.74531 6.96553C8.07949 6.63135 8.2119 6.27744 8.35625 5.92021C8.50061 5.56299 8.62949 5.19667 8.77188 4.88115C8.91426 4.56564 9.07254 4.30943 9.20938 4.17334C9.34621 4.03725 9.41583 3.9999 9.6 3.9999V3.99834ZM19.7703 3.99834H22.4016V6.7499C22.3543 6.71951 22.308 6.67727 22.2609 6.6499C21.8406 6.40534 21.4305 6.24143 21.1141 6.10459C20.7977 5.96775 20.5816 5.82838 20.5859 5.83271C20.5896 5.83641 20.4513 5.62487 20.3281 5.32021C20.205 5.01556 20.0688 4.62507 19.8875 4.22334C19.854 4.14902 19.8074 4.07354 19.7703 3.99834ZM13.6 6.3999C12.284 6.3999 11.2 7.48389 11.2 8.7999C11.2 10.1159 12.284 11.1999 13.6 11.1999C14.916 11.1999 16 10.1159 16 8.7999C16 7.48389 14.916 6.3999 13.6 6.3999ZM13.6 7.9999C14.0513 7.9999 14.4 8.3486 14.4 8.7999C14.4 9.25121 14.0513 9.5999 13.6 9.5999C13.1487 9.5999 12.8 9.25121 12.8 8.7999C12.8 8.3486 13.1487 7.9999 13.6 7.9999ZM13.6 13.5999C9.68707 13.5999 6.4 16.413 6.4 19.9999C6.4 23.5868 9.68707 26.3999 13.6 26.3999C17.5129 26.3999 20.8 23.5868 20.8 19.9999C20.8 16.413 17.5129 13.5999 13.6 13.5999ZM13.6 15.1999C16.7563 15.1999 19.2 17.4012 19.2 19.9999C19.2 22.5986 16.7563 24.7999 13.6 24.7999C10.4437 24.7999 8 22.5986 8 19.9999C8 17.4012 10.4437 15.1999 13.6 15.1999ZM23.9984 19.1999H34.0281C34.6847 19.1999 35.2 19.7152 35.2 20.3718V22.3999H23.9984V19.1999ZM23.9984 25.5999H35.2V34.828C35.2 35.4857 34.6847 35.9999 34.0281 35.9999H23.9984V30.4296C23.9985 30.4225 24 30.4164 24 30.4093H23.9984V25.5999ZM13.6 28.7999C12.284 28.7999 11.2 29.8839 11.2 31.1999C11.2 32.5159 12.284 33.5999 13.6 33.5999C14.916 33.5999 16 32.5159 16 31.1999C16 29.8839 14.916 28.7999 13.6 28.7999ZM13.6 30.3999C14.0513 30.3999 14.4 30.7486 14.4 31.1999C14.4 31.6512 14.0513 31.9999 13.6 31.9999C13.1487 31.9999 12.8 31.6512 12.8 31.1999C12.8 30.7486 13.1487 30.3999 13.6 30.3999ZM4.79844 33.2577C4.8455 33.288 4.89219 33.3227 4.93906 33.3499C5.35947 33.5943 5.7695 33.757 6.08594 33.8937C6.40237 34.0303 6.61855 34.17 6.61406 34.1655C6.6117 34.1635 6.74899 34.3738 6.87188 34.678C6.99506 34.983 7.13118 35.3746 7.3125 35.7765C7.34605 35.8508 7.39256 35.9263 7.42969 36.0015H4.79844V33.2577ZM22.4016 33.2577V36.0015H19.7703C19.8074 35.9263 19.854 35.8508 19.8875 35.7765C20.0688 35.3746 20.2049 34.983 20.3281 34.678C20.4513 34.3731 20.589 34.1609 20.5859 34.164C20.583 34.1675 20.7987 34.0298 21.1141 33.8937C21.4306 33.757 21.8405 33.5944 22.2609 33.3499C22.3078 33.3226 22.3545 33.288 22.4016 33.2577Z" fill="#FF9900"/>
</svg>
