<svg width="40" height="40" viewBox="0 0 40 40" fill="none" xmlns="http://www.w3.org/2000/svg">
<path d="M2.4 1.6001V38.4001H31.2V35.6954C30.648 35.5514 30.112 35.3436 29.6 35.0876V36.8001H4V3.2001H20V12.8001H29.6V15.2485C30.16 14.8885 30.696 14.5768 31.2 14.3048V11.672L21.1281 1.6001H2.4ZM21.6 4.32822L28.4719 11.2001H21.6V4.32822ZM35.2313 14.5204C35.0553 14.5204 34.8564 14.5445 34.6484 14.5845C34.4324 14.6325 34.1996 14.6965 33.9516 14.7845C33.7276 14.8645 33.4794 14.9598 33.2234 15.0798C32.9114 15.2158 32.5678 15.3847 32.2078 15.5767C31.8878 15.7447 31.552 15.9358 31.2 16.1438C30.768 16.3998 30.3126 16.6803 29.8406 16.9923C29.7606 17.0483 29.68 17.0957 29.6 17.1517L29.3125 17.3438C29.0165 17.5438 28.7198 17.7527 28.4078 17.9767C28.3758 17.9687 28.3353 17.9597 28.2953 17.9517C27.4633 17.8477 26.7603 17.7766 26.0563 17.7126C26.0163 17.7126 25.9759 17.7048 25.9359 17.7048C25.2159 17.6408 24.4966 17.5762 23.6406 17.4642C23.5366 17.4562 23.4398 17.4485 23.3438 17.4485C23.0158 17.4485 22.688 17.5202 22.4 17.6642C22.12 17.7842 21.8721 17.9679 21.6641 18.2079L20.7922 19.2001L17.9766 22.4001L17.1281 23.3688C16.9201 23.5528 16.7514 23.7681 16.6234 24.0001C16.4394 24.3201 16.3273 24.6725 16.2953 25.0485C16.2633 25.5445 16.368 26.0402 16.6 26.4642C16.68 26.6162 16.7755 26.7516 16.8875 26.8876C16.9835 26.9996 17.0878 27.1041 17.2078 27.2001C17.2798 27.2641 17.3513 27.3115 17.4313 27.3595C17.5433 27.4395 17.672 27.5115 17.8 27.5595C17.736 27.6395 17.6794 27.7201 17.6234 27.8001C17.4634 28.0241 17.32 28.2405 17.2 28.4485C17.128 28.5685 17.0638 28.6881 17.0078 28.8001C16.9838 28.8401 16.9598 28.8882 16.9438 28.9282C16.9278 28.9522 16.9205 28.9761 16.9125 29.0001C16.8645 29.0961 16.8242 29.1916 16.7922 29.2876C16.7602 29.3756 16.7287 29.4635 16.7047 29.5595C16.6807 29.6395 16.6643 29.7125 16.6563 29.7845C16.6483 29.8325 16.6406 29.8724 16.6406 29.9204C16.6326 29.9444 16.6313 29.9761 16.6313 30.0001V30.0798C16.6313 30.1438 16.6404 30.2005 16.6484 30.2485C16.6484 30.2885 16.6559 30.3288 16.6719 30.3688L15.9203 30.9767C15.7523 31.1207 15.7281 31.3678 15.8641 31.5438C15.9441 31.6398 16.0566 31.6876 16.1766 31.6876C16.2646 31.6876 16.3514 31.6641 16.4234 31.6001L17.1516 31.0079C17.3036 31.1039 17.5206 31.1767 17.8406 31.1767C17.9206 31.1767 18.0087 31.1675 18.1047 31.1595C18.1447 31.1515 18.1834 31.1518 18.2234 31.1438C18.2554 31.1438 18.2881 31.136 18.3281 31.136C18.3361 31.128 18.3514 31.1282 18.3594 31.1282C18.5834 31.0802 18.8476 31.0166 19.1516 30.9126C19.1596 30.9126 19.1686 30.9048 19.1766 30.9048C19.1846 30.9048 19.1918 30.8956 19.2078 30.8876C19.3038 30.8556 19.4085 30.8247 19.5125 30.7767C19.6405 30.7287 19.7765 30.6719 19.9125 30.6079C20.1525 30.5039 20.4077 30.3847 20.6797 30.2407C20.8397 30.1687 21.0008 30.0805 21.1688 29.9845C21.3288 29.8965 21.5037 29.7994 21.6797 29.6954C21.6957 29.6874 21.7121 29.6802 21.7281 29.6642C21.7761 29.6402 21.8239 29.6085 21.8719 29.5845C21.9999 29.5125 22.1281 29.4318 22.2641 29.3438C22.4161 29.2638 22.5759 29.1603 22.7359 29.0563C22.8639 28.9763 22.9923 28.8959 23.1203 28.8079C23.3523 28.6639 23.5926 28.504 23.8406 28.336C24.0406 28.2 24.2481 28.0568 24.4641 27.9048L25.5359 29.1204L28.0078 31.9048C28.1518 32.0648 28.3043 32.2168 28.4563 32.3688C28.6083 32.5208 28.7758 32.6565 28.9438 32.7845C29.0558 32.8805 29.1675 32.9605 29.2875 33.0485L29.3594 33.0954C29.4314 33.1434 29.4968 33.1913 29.5688 33.2313C29.5688 33.2393 29.5766 33.2407 29.5766 33.2407C29.5846 33.2487 29.592 33.2483 29.6 33.2563C29.848 33.4163 30.1046 33.5596 30.3766 33.6876C30.4086 33.7036 30.4321 33.7202 30.4641 33.7282L30.4719 33.736C30.5359 33.76 30.6001 33.7917 30.6641 33.8157C30.8161 33.8877 30.9759 33.9441 31.1359 34.0001C31.1599 34.0081 31.176 34.0155 31.2 34.0235C31.592 34.1595 31.9996 34.2642 32.4156 34.3282L37.1688 35.0954C37.2088 35.1034 37.2553 35.1126 37.2953 35.1126C37.6793 35.1126 38.0235 34.8327 38.0875 34.4407C38.1595 34.0007 37.8634 33.5924 37.4234 33.5204L32.6719 32.7517C32.5039 32.7277 32.3366 32.6885 32.1766 32.6485C32.0246 32.6085 31.8799 32.5684 31.7359 32.5204C31.7199 32.5124 31.6957 32.5034 31.6797 32.4954C31.6637 32.4874 31.6566 32.4878 31.6406 32.4798C31.6246 32.4718 31.6082 32.4722 31.5922 32.4642C31.4642 32.4242 31.3434 32.3764 31.2234 32.3204C31.2154 32.3204 31.208 32.3126 31.2 32.3126C30.904 32.1766 30.6158 32.0153 30.3438 31.8313C30.0798 31.6553 29.832 31.4567 29.6 31.2407C29.464 31.1127 29.3278 30.9847 29.2078 30.8407L26.6719 27.9923V27.9845L24.4953 25.536C24.2473 25.216 24.2479 24.8962 24.2719 24.7282C24.2959 24.5202 24.3999 24.3353 24.5359 24.2313C24.6479 24.1513 24.7918 24.1126 24.9438 24.1126C25.1278 24.1126 25.3273 24.168 25.4953 24.272L25.5359 24.2954L26.3281 24.8079L29.0078 26.5282L29.6 26.9126L30.0719 27.2157L31.2 26.3438L32.2078 25.5688C32.5598 25.2968 32.6234 24.7927 32.3594 24.4407C32.3194 24.3927 32.2714 24.3446 32.2234 24.3126C32.1834 24.2806 32.1527 24.2553 32.1047 24.2313H32.0953C32.0793 24.2153 32.0566 24.2159 32.0406 24.2079C32.0166 24.1919 31.9834 24.1847 31.9594 24.1767C31.9434 24.1687 31.9287 24.1595 31.9047 24.1595C31.8887 24.1595 31.8723 24.1597 31.8563 24.1517C31.8163 24.1357 31.7683 24.136 31.7203 24.136C31.5523 24.136 31.3753 24.1834 31.2313 24.2954L31.2 24.3204L29.9922 25.2563L29.6 25.0079L28.9047 24.5517C29.1447 24.3597 29.368 24.1767 29.6 23.9767C30.088 23.5687 30.552 23.1688 31 22.7688C31.008 22.7608 31.0153 22.7518 31.0313 22.7438C31.0793 22.7038 31.1364 22.6557 31.1844 22.6157C31.1844 22.6077 31.1922 22.6081 31.1922 22.6001L31.2 22.5923C31.264 22.5363 31.336 22.4797 31.4 22.4157C31.672 22.1757 31.9442 21.9354 32.1922 21.6954L33.2406 22.8954L37.4234 27.7048L38.7516 28.1517C38.8396 28.1837 38.9198 28.1923 39.0078 28.1923C39.3438 28.1923 39.6568 27.9845 39.7688 27.6485C39.9048 27.2325 39.6801 26.7767 39.2641 26.6407L38.3516 26.3282L34.3844 21.7845L34.0797 21.4313L33.3359 20.5767C33.4719 20.4407 33.6001 20.3047 33.7281 20.1767C33.8241 20.0727 33.9198 19.976 34.0078 19.872C34.1598 19.712 34.3046 19.5599 34.4406 19.4079C34.5926 19.2319 34.7435 19.0556 34.8875 18.8876C35.0315 18.7196 35.1675 18.5523 35.2875 18.3923C35.3915 18.2563 35.4964 18.1281 35.5844 18.0001C35.7124 17.8241 35.8241 17.6554 35.9281 17.4954C36.0161 17.3514 36.1048 17.2156 36.1688 17.0876C36.2408 16.9596 36.2956 16.8404 36.3516 16.7204C36.4076 16.6084 36.4477 16.5041 36.4797 16.4001C36.5037 16.3201 36.5199 16.2487 36.5359 16.1767C36.5519 16.1207 36.5688 16.0637 36.5688 16.0157C36.6328 15.5997 36.5443 15.2645 36.3203 14.9845C36.2563 14.9125 36.1845 14.8405 36.1125 14.7845C36.0885 14.7605 36.0633 14.744 36.0313 14.736C35.9753 14.696 35.9201 14.6647 35.8641 14.6407C35.8321 14.6247 35.7914 14.6079 35.7594 14.6079C35.6954 14.5839 35.6328 14.5677 35.5688 14.5517C35.4648 14.5277 35.3513 14.5204 35.2313 14.5204ZM34.3125 16.3438L34.5688 16.6642C34.3448 17.0162 34.0168 17.4567 33.5688 17.9767L32.8234 17.0563C33.4234 16.7203 33.9205 16.4958 34.3125 16.3438ZM8.8 17.6001V19.2001H18.6563L20.0641 17.6001H8.8ZM31.4234 17.872L31.9281 18.4876L32.4797 19.1688C32.1357 19.5208 31.7521 19.8968 31.3281 20.3048C31.2881 20.3448 31.248 20.3835 31.2 20.4235C31.168 20.4475 31.1445 20.4808 31.1125 20.5048C30.9605 20.6488 30.8084 20.792 30.6484 20.936L30.4078 21.1517C30.3278 21.2237 30.2394 21.2967 30.1594 21.3767V21.3845C29.9834 21.5365 29.8 21.704 29.6 21.872C29.336 22.096 29.0646 22.3367 28.7766 22.5767C28.4006 22.8967 28.0004 23.2235 27.5844 23.5595L27.4875 23.6485L26.3516 22.9204C26.2796 22.8804 26.2081 22.8321 26.1281 22.8001C26.1201 22.8001 26.1127 22.7923 26.1047 22.7923C26.0407 22.7523 25.9687 22.7208 25.9047 22.7048C25.8407 22.6728 25.7765 22.6473 25.7125 22.6313C25.6245 22.5993 25.5366 22.5768 25.4406 22.5688C25.3446 22.5448 25.2474 22.5282 25.1594 22.5282C25.4634 22.2642 25.7767 22.0078 26.1047 21.7438C26.3047 21.5838 26.4957 21.4316 26.6797 21.2876C26.7917 21.1916 26.9036 21.1037 27.0156 21.0157C27.2796 20.8077 27.544 20.6077 27.8 20.4157C27.968 20.2877 28.1275 20.1605 28.2875 20.0485C28.3195 20.0245 28.3448 20.0005 28.3688 19.9845C28.5848 19.8245 28.792 19.6644 29 19.5204C29.2 19.3684 29.408 19.2236 29.6 19.0876L30.0797 18.7517C30.2477 18.6397 30.4088 18.5275 30.5688 18.4235C30.7928 18.2795 31 18.1437 31.2 18.0157C31.28 17.9677 31.3514 17.92 31.4234 17.872ZM23.4313 19.0485C23.7113 19.0885 23.9753 19.1198 24.2313 19.1438C24.7833 19.2078 25.296 19.2554 25.8 19.2954C26.04 19.3194 26.2879 19.3368 26.5359 19.3688C26.3039 19.5448 26.0713 19.7284 25.8313 19.9204C25.5913 20.1044 25.3447 20.3034 25.1047 20.4954C24.9927 20.5914 24.8643 20.6959 24.7203 20.8079C24.6723 20.8479 24.6248 20.8882 24.5688 20.9282C24.5128 20.9682 24.456 21.016 24.4 21.072C24.312 21.144 24.2241 21.2154 24.1281 21.2954C23.9761 21.4234 23.8086 21.5606 23.6406 21.7126C23.5046 21.8246 23.3596 21.944 23.2156 22.072C22.8636 22.376 22.4885 22.7045 22.1125 23.0485C21.9605 23.1845 21.8004 23.328 21.6484 23.472C21.4884 23.608 21.3366 23.7608 21.1766 23.9048C21.0326 24.0408 20.8878 24.1844 20.7438 24.3204C20.7118 24.3524 20.6803 24.3759 20.6563 24.4079C20.5763 24.4799 20.5034 24.5593 20.4234 24.6313C20.3034 24.7513 20.1839 24.8645 20.0719 24.9845C19.9519 25.1045 19.8401 25.224 19.7281 25.336C19.6081 25.456 19.4962 25.5756 19.3922 25.6876C19.2402 25.8476 19.0956 25.9995 18.9516 26.1595H18.9438C18.9038 26.1755 18.8556 26.1767 18.8156 26.1767C18.7916 26.1767 18.7599 26.1768 18.7359 26.1688C18.4879 26.1528 18.2647 26.0405 18.1047 25.8485C17.9527 25.6645 17.8713 25.4247 17.8953 25.1767C17.8953 25.1207 17.9043 25.0717 17.9203 25.0157C17.9363 24.9597 17.9524 24.9123 17.9844 24.8563C18.0324 24.7363 18.1116 24.6318 18.2156 24.5438L22.8641 19.2642C22.9281 19.2002 22.9997 19.1448 23.0797 19.1048C23.1837 19.0568 23.3113 19.0325 23.4313 19.0485ZM8.8 22.4001V24.0001H14.8875C15.0715 23.4001 15.3926 22.8561 15.8406 22.4001H8.8ZM22.6719 24.7126C22.6479 25.0646 22.6956 25.4078 22.8156 25.7438C22.8636 25.8878 22.928 26.0157 23 26.1517C23.08 26.2877 23.1681 26.4237 23.2641 26.5517L23.4 26.7048C23.28 26.7848 23.1683 26.864 23.0563 26.936C22.7203 27.16 22.4085 27.3677 22.1125 27.5517C22.0885 27.5677 22.0644 27.5843 22.0484 27.5923C21.9284 27.6723 21.8167 27.7439 21.7047 27.8079L20.7359 26.6079C20.8959 26.4399 21.0724 26.2638 21.2484 26.0798C21.4484 25.8878 21.6559 25.6802 21.8719 25.4642C21.9119 25.4322 21.9522 25.3917 21.9922 25.3517C22.1282 25.2157 22.2714 25.0798 22.4234 24.9438C22.5034 24.8638 22.5839 24.7926 22.6719 24.7126ZM8.8 27.2001V28.8001H15.2563C15.3523 28.5041 15.4963 28.2086 15.6563 27.9126C15.4723 27.6886 15.3124 27.4561 15.1844 27.2001H8.8ZM19.6484 27.8157L20.3047 28.6235C19.7047 28.9515 19.2243 29.1684 18.8563 29.3204C18.8483 29.3204 18.8314 29.3282 18.8234 29.3282C18.7914 29.3442 18.7601 29.3608 18.7281 29.3688H18.7203C18.6083 29.4168 18.5038 29.4478 18.4078 29.4798L18.4797 29.3595C18.5277 29.2795 18.5844 29.1928 18.6484 29.1048C18.6484 29.0968 18.6561 29.0878 18.6641 29.0798V29.072C18.8961 28.728 19.2244 28.3037 19.6484 27.8157Z" fill="#FF9900"/>
</svg>
