<svg width="40" height="40" viewBox="0 0 40 40" fill="none" xmlns="http://www.w3.org/2000/svg">
<path d="M20 4C11.1732 4 4 11.1732 4 20C3.9985 20.106 4.01809 20.2113 4.05762 20.3096C4.09715 20.408 4.15584 20.4975 4.23027 20.573C4.30471 20.6485 4.39341 20.7085 4.49121 20.7494C4.58902 20.7903 4.69398 20.8114 4.8 20.8114C4.90602 20.8114 5.01098 20.7903 5.10879 20.7494C5.20659 20.7085 5.29529 20.6485 5.36973 20.573C5.44416 20.4975 5.50285 20.408 5.54238 20.3096C5.58191 20.2113 5.6015 20.106 5.6 20C5.6 12.038 12.038 5.6 20 5.6C25.3342 5.6 29.9762 8.49909 32.4656 12.8H28.8C28.694 12.7985 28.5887 12.8181 28.4904 12.8576C28.392 12.8971 28.3025 12.9558 28.227 13.0303C28.1515 13.1047 28.0915 13.1934 28.0506 13.2912C28.0097 13.389 27.9886 13.494 27.9886 13.6C27.9886 13.706 28.0097 13.811 28.0506 13.9088C28.0915 14.0066 28.1515 14.0953 28.227 14.1697C28.3025 14.2442 28.392 14.3029 28.4904 14.3424C28.5887 14.3819 28.694 14.4015 28.8 14.4H33.7625H35.2V8C35.2015 7.89297 35.1814 7.78673 35.1411 7.68758C35.1008 7.58843 35.041 7.49838 34.9652 7.42276C34.8894 7.34714 34.7993 7.2875 34.7 7.24735C34.6008 7.20721 34.4945 7.18739 34.3875 7.18906C34.1756 7.19237 33.9737 7.27962 33.826 7.43166C33.6784 7.58369 33.5971 7.78809 33.6 8V11.5812C30.7768 7.03208 25.7397 4 20 4ZM18.4 11.2L17.9203 13.7594C17.6803 13.8394 17.3603 13.9197 17.1203 14.0797L14.9594 12.5594L12.5594 14.9594L14 16.9594C13.92 17.2794 13.7597 17.5206 13.6797 17.8406L11.2 18.2406V21.6L13.6797 22C13.7597 22.24 13.84 22.56 14 22.8L12.5594 24.9594L14.9594 27.3594L17.1203 25.9203C17.4403 26.0803 17.68 26.1606 18 26.2406L18.4 28.8H21.6797L22.1594 26.3203C22.3994 26.2403 22.6394 26.16 22.9594 26L25.1203 27.4406L27.5203 25.0406L26 22.9594C26.16 22.6394 26.2403 22.3197 26.3203 22.0797L28.8 21.6V18.2406L26.2406 17.8406C26.1606 17.6006 26.0803 17.2806 25.9203 17.0406L27.3594 14.8797L25.0406 12.5594L22.9594 14.0797C22.7194 13.9197 22.3994 13.8394 22.1594 13.7594L21.7594 11.2H18.4ZM19.7594 12.8H20.4L20.7203 14.9594L21.2 15.1203C21.68 15.2803 22.1594 15.4397 22.5594 15.6797L24.8797 14.6406L25.2797 15.0406L24 16.8797L24.2406 17.2797C24.4806 17.7597 24.64 18.2403 24.8 18.7203L24.9594 19.2L27.2 19.5203V20.1594L25.0406 20.6406L24.8797 21.1203C24.7197 21.6003 24.5603 22.0797 24.3203 22.4797L24 22.9594L25.3594 24.8L24.8797 25.2797L23.0406 24L22.6406 24.2406C22.1606 24.4806 21.68 24.64 21.2 24.8L20.7203 24.9594L20.3203 27.2H19.6797L19.3594 25.0406L18.8797 24.8797C18.3997 24.7197 17.9203 24.5603 17.5203 24.3203L17.0406 24L15.1203 25.2797L14.6406 24.8L15.9203 22.9594L15.6797 22.5594C15.4397 22.0794 15.2803 21.5203 15.1203 21.1203L14.9594 20.6406L12.8 20.2406V19.6L15.0406 19.2L15.1203 18.6406C15.2003 18.2406 15.36 17.7594 15.6 17.3594L15.9203 16.9594L14.6406 15.1203L15.1203 14.6406L16.9594 15.9203L17.3594 15.7594C17.9194 15.5194 18.3997 15.2803 18.8797 15.1203L19.3594 15.0406L19.7594 12.8ZM20 16.7203C18.24 16.7203 16.8 18.1603 16.8 19.9203C16.8 21.6803 18.24 23.1203 20 23.1203C21.76 23.1203 23.2 21.7603 23.2 19.9203C23.2 18.1603 21.76 16.7203 20 16.7203ZM20 18.4C20.88 18.4 21.6 19.04 21.6 20C21.6 20.88 20.88 21.6 20 21.6C19.12 21.6 18.4 20.88 18.4 20C18.4 19.12 19.12 18.4 20 18.4ZM35.1875 19.1891C34.9756 19.1924 34.7737 19.2796 34.626 19.4317C34.4784 19.5837 34.3971 19.7881 34.4 20C34.4 27.962 27.962 34.4 20 34.4C14.6661 34.4 10.0254 31.5005 7.53594 27.2L11.2 27.2016C11.306 27.2031 11.4113 27.1835 11.5096 27.1439C11.608 27.1044 11.6975 27.0457 11.773 26.9713C11.8485 26.8969 11.9085 26.8082 11.9494 26.7104C11.9903 26.6125 12.0114 26.5076 12.0114 26.4016C12.0114 26.2955 11.9903 26.1906 11.9494 26.0928C11.9085 25.995 11.8485 25.9063 11.773 25.8318C11.6975 25.7574 11.608 25.6987 11.5096 25.6592C11.4113 25.6196 11.306 25.6001 11.2 25.6016L4.8 25.6V32C4.7985 32.106 4.81809 32.2113 4.85762 32.3096C4.89715 32.408 4.95584 32.4975 5.03027 32.573C5.10471 32.6485 5.19341 32.7085 5.29121 32.7494C5.38902 32.7903 5.49398 32.8114 5.6 32.8114C5.70602 32.8114 5.81098 32.7903 5.90879 32.7494C6.00659 32.7085 6.09529 32.6485 6.16973 32.573C6.24416 32.4975 6.30285 32.408 6.34238 32.3096C6.38191 32.2113 6.4015 32.106 6.4 32V28.4188C9.22319 32.9679 14.2603 36 20 36C28.8268 36 36 28.8268 36 20C36.0015 19.893 35.9814 19.7867 35.9411 19.6876C35.9008 19.5884 35.841 19.4984 35.7652 19.4228C35.6894 19.3471 35.5993 19.2875 35.5 19.2474C35.4008 19.2072 35.2945 19.1874 35.1875 19.1891Z" fill="#FF9900"/>
</svg>
