<svg width="55" height="55" viewBox="0 0 55 55" fill="none" xmlns="http://www.w3.org/2000/svg">
<path d="M48.9844 45.5469C48.2539 45.5469 47.6953 46.1055 47.6953 46.8359V53.2812C47.6953 54.0117 48.2539 54.5703 48.9844 54.5703C49.7148 54.5703 50.2734 54.0117 50.2734 53.2812V46.8359C50.2734 46.1055 49.7148 45.5469 48.9844 45.5469ZM45.9766 9.45312C45.9766 6.35938 43.4844 3.86719 40.3906 3.86719C37.2969 3.86719 34.8047 6.35938 34.8047 9.45312C34.8047 12.5469 37.2969 15.0391 40.3906 15.0391C43.4844 15.0391 45.9766 12.5469 45.9766 9.45312ZM37.3828 9.45312C37.3828 7.77734 38.7148 6.44531 40.3906 6.44531C42.0664 6.44531 43.3984 7.77734 43.3984 9.45312C43.3984 11.1289 42.0664 12.4609 40.3906 12.4609C38.7148 12.4609 37.3828 11.1289 37.3828 9.45312ZM14.6094 3.86719C13.1279 3.86719 11.7071 4.4557 10.6595 5.50327C9.61195 6.55084 9.02344 7.97164 9.02344 9.45312C9.02344 10.9346 9.61195 12.3554 10.6595 13.403C11.7071 14.4505 13.1279 15.0391 14.6094 15.0391C16.0909 15.0391 17.5117 14.4505 18.5592 13.403C19.6068 12.3554 20.1953 10.9346 20.1953 9.45312C20.1953 7.97164 19.6068 6.55084 18.5592 5.50327C17.5117 4.4557 16.0909 3.86719 14.6094 3.86719ZM40.3906 17.6172C34.1172 17.6172 30.5078 20.4531 30.5078 25.3516V28.3594H22.7305C22.2578 26.7266 21.6562 25.1367 20.9258 23.6328C18.9922 19.6367 16.8438 17.6172 14.6094 17.6172C12.375 17.6172 10.2695 19.6367 8.29297 23.5898C7.5625 25.0938 6.96094 26.7266 6.48828 28.3594H4.29688C2.14844 28.3594 0.429688 30.0781 0.429688 32.2266C0.429688 34.375 2.14844 36.0938 4.29688 36.0938H31.7969C32.5273 36.0938 33.0859 35.5352 33.0859 34.8047C33.0859 34.0742 32.5273 33.5156 31.7969 33.5156H4.29688C3.56641 33.5156 3.00781 32.957 3.00781 32.2266C3.00781 31.4961 3.56641 30.9375 4.29688 30.9375H31.7969C32.5273 30.9375 33.0859 30.3789 33.0859 29.6484V25.3516C33.0859 21.9141 35.5352 20.1953 40.3906 20.1953C45.2461 20.1953 47.6953 21.9141 47.6953 25.3516V40.3906C47.6953 41.1211 48.2539 41.6797 48.9844 41.6797C49.7148 41.6797 50.2734 41.1211 50.2734 40.3906V25.3516C50.2734 20.4531 46.6641 17.6172 40.3906 17.6172Z" fill="#FF9900"/>
</svg>
