<svg width="55" height="55" viewBox="0 0 55 55" fill="none" xmlns="http://www.w3.org/2000/svg">
<path d="M39.7047 5.00139C36.2842 5.06802 32.1324 7.19662 30.1989 9.12533C27.7416 11.5765 27.5271 14.943 29.5802 18.4393L26.3741 21.6374L27.5271 22.7596C28.1318 22.2546 28.9122 21.9741 29.7489 21.9741C30.6805 21.9741 31.5735 22.3107 32.1957 22.9279L32.8144 23.5731C33.6335 24.3902 33.9851 25.5439 33.7706 26.6591L34.3893 27.3043C34.5018 27.3043 34.6143 27.3254 34.7268 27.3324L36.6392 25.4247C38.2493 26.2874 39.7997 26.7152 41.2234 26.7152C42.9776 26.7152 44.5561 26.0559 45.8638 24.7514C48.2825 22.3388 50.9156 16.7139 49.6887 13.0529C49.5902 12.7583 49.3477 12.5339 49.0418 12.4638C48.736 12.3901 48.4196 12.4953 48.1981 12.7162L43.4171 17.4574C43.1253 17.7484 42.5769 17.7309 42.264 17.4574L37.483 12.7162C37.1912 12.4252 37.2088 11.8816 37.483 11.566L42.264 6.79685C42.482 6.57943 42.5874 6.25681 42.5171 5.95523C42.4468 5.65365 42.2183 5.41168 41.9265 5.30999C41.2515 5.07854 40.4957 4.98737 39.7047 5.00139ZM7.2499 5.08555L5 7.32987L8.76859 13.8945L11.2154 13.5298L25.2491 27.5287L24.1804 28.5948C23.5582 29.2155 23.5582 30.3306 24.1804 30.9513L24.7991 31.5685C25.2421 32.0069 25.9874 32.1542 26.5709 31.9332L27.1334 31.7368L29.1021 33.7006L29.0458 34.1214C28.9439 35.0753 29.32 36.0782 30.0302 36.7866L41.8421 48.5973C42.7562 49.5091 43.9549 50 45.217 50C46.4791 50 47.6954 49.4915 48.62 48.5692C50.4234 46.6861 50.4375 43.6773 48.62 41.8643L36.7799 30.0536C36.1084 29.3838 35.1452 29.0296 34.1081 29.0998L33.6863 29.1278L31.7176 27.164L31.9145 26.603C32.1535 25.9893 32.0129 25.2985 31.5488 24.8356L30.9301 24.2184C30.3606 23.6503 29.1372 23.6503 28.5677 24.2184L27.499 25.2844L13.4653 11.2855L13.8309 8.84479L7.2499 5.08555ZM21.593 26.4066L16.137 31.8491C15.5148 31.7263 14.9031 31.6527 14.2808 31.6527C9.21857 31.6527 5.08437 35.7766 5.08437 40.8263C5.08437 45.8761 9.21857 49.9719 14.2808 49.9719C19.3431 49.9719 23.4492 45.8761 23.4492 40.8263C23.4492 40.0654 23.3859 39.4061 23.2242 38.8065L27.2459 34.7947C27.2354 34.658 27.2143 34.5107 27.2178 34.3739L26.6272 33.7848C25.5268 33.9917 24.3245 33.62 23.5336 32.831L22.8867 32.2138C21.6282 30.9583 21.586 28.8929 22.718 27.5568L21.593 26.4066ZM33.5456 32.2699L44.3452 43.0426L43.0515 44.3331L32.2519 33.5604L33.5456 32.2699ZM15.3495 36.506L18.4994 39.6481L17.4307 43.8562L13.0996 45.0344L9.94978 41.8924L11.131 37.6843L15.3495 36.506Z" fill="#333333"/>
</svg>
