<svg width="55" height="55" viewBox="0 0 55 55" fill="none" xmlns="http://www.w3.org/2000/svg">
<path d="M50.6344 26.4343C49.8395 26.4859 49.066 26.8339 48.4688 27.4312L37.4 38.5H26.4L24.2 36.2999L32.6563 34.6156C33.8895 34.3707 34.9035 33.4468 35.1313 32.2093C35.4836 30.2886 34.0313 28.5999 32.175 28.5999H16.8438C14.5105 28.5999 12.2719 29.5281 10.6219 31.1781L1.1 40.7L11 50.6L14.7469 46.8531C15.1594 46.4406 15.7094 46.2 16.2938 46.2H36.6781C37.8469 46.2 38.9469 45.7187 39.7719 44.8937L52.9719 31.6937C54.2266 30.439 54.2051 28.3937 52.8687 27.1906C52.2414 26.6277 51.4293 26.3828 50.6344 26.4343Z" fill="#333333"/>
<path d="M43.5417 4.94995C45.3137 4.94995 46.75 6.38622 46.75 8.15828V10.2972C46.75 10.8875 46.2709 11.3666 45.6806 11.3666H42.4722V12.4361C42.4722 13.0264 41.9931 13.5055 41.4028 13.5055C40.8124 13.5055 40.3333 13.0264 40.3333 12.4361V11.3666H36.0556L36.0535 22.0611H40.7615C39.8707 22.0611 39.0933 21.5402 38.796 20.7702C38.6163 20.3681 38.1944 19.4302 38.1944 17.7833C38.1944 17.193 38.6736 16.7138 39.2639 16.7138H43.5417C44.132 16.7138 44.6111 17.193 44.6111 17.7833C44.6111 19.1265 44.2797 20.0215 44.0263 20.7305C43.7129 21.539 42.9349 22.0611 42.044 22.0611H45.6806C46.2709 22.0611 46.75 22.5402 46.75 23.1305C46.75 23.7208 46.2709 24.2 45.6806 24.2H29.6389C28.4572 24.2 27.5 23.2428 27.5 22.0611V10.2972C27.5 7.34444 29.8945 4.94995 32.8472 4.94995H43.5417ZM31.7778 17.2486C30.8923 17.2486 30.1736 17.9672 30.1736 18.8527C30.1736 19.7382 30.8923 20.4569 31.7778 20.4569C32.6633 20.4569 33.3819 19.7382 33.3819 18.8527C33.3819 17.9672 32.6633 17.2486 31.7778 17.2486Z" fill="#333333"/>
<path d="M29.04 19.0666C29.04 20.6259 30.3041 21.89 31.8633 21.89C33.4226 21.89 34.6867 20.6259 34.6867 19.0666C34.6867 17.5073 33.4226 16.2433 31.8633 16.2433C30.3041 16.2433 29.04 17.5073 29.04 19.0666Z" fill="#333333"/>
</svg>
