<svg width="45" height="45" viewBox="0 0 45 45" fill="none" xmlns="http://www.w3.org/2000/svg">
<rect width="45" height="45" rx="22.5" fill="#7E57C2"/>
<path d="M22.144 8.29018C21.2983 8.29501 20.4503 8.34569 19.595 8.44946C17.9594 8.64978 16.3384 8.98283 14.7828 9.69479C12.3089 10.8267 10.5547 12.7478 10.0458 15.5401C9.83017 16.7178 9.65571 17.9125 9.55637 19.1144C9.36495 21.4481 9.48367 23.7892 10.1476 26.0891C10.671 27.9016 11.6353 29.5307 13.3242 30.5878C14.039 31.0342 14.9815 31.2514 15.4734 31.4783C15.6115 31.5435 15.6454 31.5821 15.6527 31.5917C15.66 31.599 15.6794 31.6159 15.6769 31.7607C15.66 33.2377 15.6769 36.0952 15.6769 36.0952L15.6794 36.7106H16.7867L16.966 36.5368C16.966 36.5368 19.7791 33.841 20.7968 32.7309C20.9809 32.533 21.0754 32.422 21.0948 32.4099C21.1118 32.3978 21.0827 32.3906 21.2717 32.3858C22.6068 32.3592 23.9394 32.3085 25.2721 32.2361C27.0288 32.1396 28.8194 31.9731 30.5422 31.2563C32.042 30.6312 33.2947 29.6103 34.0532 28.0802C34.8285 26.5115 35.2429 24.8486 35.3979 23.1279C35.6548 20.2632 35.5651 17.3936 34.7704 14.5651C34.3027 12.907 33.3626 11.5049 31.9209 10.5154C30.1957 9.33278 28.25 8.88871 26.3455 8.60634C25.2333 8.44222 24.1139 8.33362 22.9896 8.29983C22.7085 8.29259 22.4275 8.28777 22.144 8.29018ZM22.9557 9.5355C24.0243 9.56446 25.0928 9.66824 26.1638 9.82753C28.0004 10.1002 29.7329 10.5154 31.2182 11.5338C32.4225 12.3592 33.1736 13.4742 33.5758 14.8957C34.3173 17.5408 34.4118 20.2511 34.1622 23.0193C34.0192 24.6145 33.6388 26.1181 32.9386 27.5348C32.3207 28.7849 31.3563 29.5789 30.0624 30.1171C28.5602 30.7422 26.927 30.9087 25.2067 31.0029C23.8886 31.0753 22.568 31.1235 21.2475 31.1501C20.9155 31.1573 20.5908 31.2442 20.3606 31.4131C20.1305 31.5821 20.0263 31.739 19.8833 31.8934C19.1564 32.685 17.7074 34.0776 16.9175 34.8402C16.9127 33.9183 16.9054 32.8033 16.9175 31.7752C16.9224 31.459 16.8497 31.1356 16.6679 30.8798C16.4862 30.624 16.2366 30.4695 15.9968 30.3585C15.2965 30.0351 14.3806 29.7889 13.9832 29.5403C12.5948 28.6715 11.8074 27.3683 11.3397 25.7464C10.7267 23.625 10.6104 21.4409 10.7921 19.2181C10.889 18.0645 11.0562 16.9085 11.267 15.7621C11.708 13.3463 13.094 11.8258 15.2989 10.817C16.6922 10.1799 18.1799 9.86614 19.7476 9.67548C20.8162 9.54516 21.8847 9.50413 22.9557 9.5355ZM23.2174 12.615C22.7061 12.615 22.2094 12.6729 21.7272 12.7791C21.3953 12.8564 21.1845 13.187 21.2596 13.5201C21.3347 13.8531 21.6691 14.0607 22.0034 13.9858C22.3936 13.8966 22.8006 13.8507 23.2174 13.8507C26.2462 13.8507 28.6886 16.2834 28.6886 19.2978C28.6886 19.7153 28.6425 20.1208 28.5529 20.5117C28.4778 20.8424 28.6862 21.1754 29.0205 21.2502C29.3549 21.3251 29.6869 21.1151 29.762 20.782C29.871 20.3042 29.9292 19.8094 29.9292 19.2978C29.9292 15.6149 26.9173 12.615 23.2174 12.615ZM17.029 13.8531C16.9272 13.8483 16.823 13.8555 16.714 13.8797C15.5873 14.1282 14.4678 14.9416 14.4363 16.3944C14.4678 16.5972 14.4654 16.8144 14.5405 16.9978C14.9088 17.8956 15.2287 18.8223 15.689 19.6719C17.9303 23.7988 21.3202 26.6684 25.6404 28.4905C26.1565 28.7077 26.6896 28.7536 27.2105 28.5364C27.9277 28.2395 28.5359 27.781 28.9406 27.1221C29.4954 26.2171 29.5027 25.5896 28.5892 24.9211C27.9907 24.4818 27.4019 24.0305 26.7962 23.6009C25.873 22.9493 24.8747 22.8359 24.1866 23.9798C24.1502 24.0377 24.0969 24.086 24.0509 24.1343C23.6971 24.5084 23.2634 24.6001 22.803 24.4118C21.056 23.695 19.7064 22.539 18.8923 20.8182C18.4125 19.807 18.5434 19.3002 19.4399 18.6269C19.5295 18.5617 19.6143 18.4917 19.6967 18.4169C20.0893 18.0597 20.1934 17.6349 19.9608 17.1547C19.435 16.059 18.7348 15.0815 17.848 14.2393C17.6081 14.0124 17.3343 13.87 17.029 13.8531ZM23.2077 14.4685C22.9339 14.4685 22.6625 14.4903 22.396 14.5361C22.1706 14.5651 21.9792 14.7147 21.8968 14.9247C21.8145 15.137 21.8556 15.376 22.001 15.5497C22.1488 15.7211 22.3814 15.8007 22.6044 15.7525C22.7982 15.7211 23.0017 15.7042 23.2077 15.7042C25.2236 15.7042 26.8422 17.3164 26.8422 19.3243C26.8422 19.5295 26.8253 19.7322 26.7938 19.9253C26.7453 20.1473 26.8253 20.379 26.9973 20.5262C27.1718 20.671 27.4116 20.712 27.6249 20.63C27.8357 20.5479 27.9859 20.3573 28.015 20.1328C28.061 19.8674 28.0828 19.597 28.0828 19.3243C28.0828 16.6503 25.8924 14.4685 23.2077 14.4685ZM23.1205 16.322C22.8975 16.3196 22.6892 16.4355 22.5753 16.6285C22.4638 16.8216 22.4638 17.0581 22.5753 17.2512C22.6892 17.4443 22.8975 17.5601 23.1205 17.5577C24.1551 17.5577 24.9813 18.3807 24.9813 19.4112C24.9789 19.6332 25.0952 19.8408 25.2891 19.9542C25.4829 20.0653 25.7204 20.0653 25.9142 19.9542C26.1081 19.8408 26.2244 19.6332 26.2219 19.4112C26.2219 17.7122 24.8263 16.322 23.1205 16.322Z" fill="white"/>
</svg>
